<svg id="Layer_1" data-name="Layer 1" xmlns="http://www.w3.org/2000/svg" viewBox="0 0 266 75"><defs><style>.cls-1{fill:#1d1c1a;}.cls-2{fill:#9c8d68;}</style></defs><title>LOGO CONST</title><polygon class="cls-1" points="50.02 46.06 42.95 46.06 34.96 19.73 26.98 46.06 19.91 46.06 8.32 2.66 17.16 2.66 23.87 30.03 31.79 2.66 38.13 2.66 46.05 30.03 52.82 2.66 61.66 2.66 50.02 46.06"/><polygon class="cls-1" points="99.43 46.06 99.43 2.66 107.91 2.66 107.91 38.5 122.65 38.5 122.65 46.06 99.43 46.06"/><polygon class="cls-1" points="127.85 46.06 127.85 2.66 136.32 2.66 136.32 38.5 148.6 38.5 152.72 46.06 127.85 46.06"/><polygon class="cls-2" points="174.9 46.06 157.71 19.42 157.71 46.06 149.24 30.46 149.24 2.66 156.79 2.66 173.98 29.24 173.98 2.66 182.46 2.66 182.46 46.06 174.9 46.06"/><path class="cls-2" d="M204.38,46.42c-8.9,0-16-6-16-15.23V2.66h8.47V30.88c0,5,2.93,8,7.5,8s7.56-3,7.56-8V2.66h8.41V31.19c0,9.2-7.07,15.23-16,15.23"/><polygon class="cls-2" points="246.38 10.22 246.38 46.06 237.9 46.06 237.9 10.22 226.57 10.22 226.57 2.66 257.71 2.66 257.71 10.22 246.38 10.22"/><polygon class="cls-1" points="79.36 2.66 71.97 2.66 56.92 46.06 65.76 46.06 76.25 15.46 86.36 46.06 95.2 46.06 79.36 2.66"/><polygon class="cls-1" points="69.7 2.66 73.95 8.64 86.36 46.06 95.2 46.06 79.36 2.66 69.7 2.66"/><path class="cls-1" d="M20.3,72c-3.24,0-5.43-2.5-5.43-6.19s2.22-6.23,5.52-6.23a5.73,5.73,0,0,1,3.36,1l-.19,1.21a5.43,5.43,0,0,0-3.19-1.16c-2.63,0-4.26,2.08-4.26,5.12s1.64,5.13,4.24,5.13a5.64,5.64,0,0,0,3.42-1.25l.17,1.14A6.19,6.19,0,0,1,20.3,72"/><path class="cls-1" d="M32.6,72c-3.19,0-5.38-2.53-5.38-6.19s2.22-6.23,5.41-6.23,5.4,2.54,5.4,6.2S35.82,72,32.6,72m0-11.34c-2.52,0-4.17,2.08-4.17,5.12s1.67,5.15,4.18,5.15,4.16-2.08,4.16-5.12-1.66-5.15-4.17-5.15"/><polygon class="cls-1" points="50.53 71.78 43.54 61.7 43.54 71.78 42.41 71.78 42.41 59.81 43.54 59.81 50.32 69.57 50.32 59.81 51.45 59.81 51.45 71.78 50.53 71.78"/><path class="cls-1" d="M59,71.91a6.67,6.67,0,0,1-3.17-.74L56,70a5.82,5.82,0,0,0,3.05.91,2.19,2.19,0,0,0,2.46-2.16c0-1.17-.58-1.76-2.41-2.56-2.28-1-3.12-1.77-3.12-3.47s1.46-3,3.44-3a5.15,5.15,0,0,1,2.63.63l-.17,1.19a4.47,4.47,0,0,0-2.51-.76,1.93,1.93,0,0,0-2.19,1.87c0,1.09.57,1.62,2.41,2.43,2.22,1,3.12,1.84,3.12,3.59,0,2-1.61,3.29-3.71,3.29"/><polygon class="cls-1" points="70.84 60.89 70.84 71.78 69.66 71.78 69.66 60.89 65.78 60.89 65.78 59.81 74.58 59.81 74.76 60.89 70.84 60.89"/><path class="cls-1" d="M86.41,71.63l-1.21.27-3.89-5.41H79.77v5.29h-1.2v-12h3.06c2.34,0,3.83,1.18,3.83,3.26a3.21,3.21,0,0,1-2.85,3.26ZM81.57,60.87h-1.8v4.59h1.6c1.77,0,2.88-.79,2.88-2.32s-.94-2.27-2.68-2.27"/><path class="cls-1" d="M94.39,72c-2.81,0-4.47-1.88-4.47-4.67V59.81h1.19v7.33c0,2.23,1.1,3.75,3.3,3.75s3.31-1.4,3.31-3.68v-7.4h1.2v7.4c0,2.9-1.72,4.76-4.53,4.76"/><path class="cls-1" d="M108.54,72c-3.24,0-5.43-2.5-5.43-6.19s2.22-6.23,5.52-6.23a5.73,5.73,0,0,1,3.36,1l-.19,1.21a5.43,5.43,0,0,0-3.19-1.16c-2.63,0-4.26,2.08-4.26,5.12s1.64,5.13,4.24,5.13A5.64,5.64,0,0,0,112,69.66l.17,1.14a6.19,6.19,0,0,1-3.64,1.2"/><polygon class="cls-1" points="120.54 60.89 120.54 71.78 119.36 71.78 119.36 60.89 115.48 60.89 115.48 59.81 124.29 59.81 124.46 60.89 120.54 60.89"/><rect class="cls-1" x="128.4" y="59.81" width="1.2" height="11.97"/><path class="cls-1" d="M139.5,72c-3.19,0-5.38-2.53-5.38-6.19s2.22-6.23,5.41-6.23,5.4,2.54,5.4,6.2S142.72,72,139.5,72m0-11.34c-2.52,0-4.17,2.08-4.17,5.12s1.67,5.15,4.18,5.15,4.17-2.08,4.17-5.12-1.67-5.15-4.18-5.15"/><polygon class="cls-1" points="157.43 71.78 150.44 61.7 150.44 71.78 149.32 71.78 149.32 59.81 150.44 59.81 157.22 69.57 157.22 59.81 158.35 59.81 158.35 71.78 157.43 71.78"/><path class="cls-1" d="M171.69,71.78h-2.76v-12h2.77c2.47,0,3.7,1.2,3.7,3a2.73,2.73,0,0,1-1.82,2.62,2.87,2.87,0,0,1,2.36,2.91c0,2.29-1.69,3.46-4.25,3.46m0-10.93h-1.56V65h1.53c1.69,0,2.58-.92,2.58-2.17s-.83-2-2.55-2m.05,5.15h-1.61v4.73h1.68c1.82,0,3-.85,3-2.34s-1.16-2.39-3-2.39"/><path class="cls-1" d="M184.43,72c-2.81,0-4.47-1.88-4.47-4.67V59.81h1.2v7.33c0,2.23,1.09,3.75,3.29,3.75s3.31-1.4,3.31-3.68v-7.4H189v7.4c0,2.9-1.72,4.76-4.53,4.76"/><path class="cls-1" d="M196.33,71.91a6.7,6.7,0,0,1-3.17-.74l.17-1.22a5.82,5.82,0,0,0,3,.91,2.2,2.2,0,0,0,2.47-2.16c0-1.17-.59-1.76-2.41-2.56-2.29-1-3.12-1.77-3.12-3.47s1.45-3,3.43-3a5.15,5.15,0,0,1,2.63.63l-.17,1.19a4.47,4.47,0,0,0-2.51-.76,1.93,1.93,0,0,0-2.19,1.87c0,1.09.57,1.62,2.41,2.43,2.22,1,3.12,1.84,3.12,3.59,0,2-1.61,3.29-3.71,3.29"/><rect class="cls-1" x="204.43" y="59.81" width="1.19" height="11.97"/><polygon class="cls-1" points="218.81 71.78 211.82 61.7 211.82 71.78 210.69 71.78 210.69 59.81 211.82 59.81 218.6 69.57 218.6 59.81 219.72 59.81 219.72 71.78 218.81 71.78"/><polygon class="cls-1" points="224.65 71.78 224.65 59.81 230.89 59.81 230.89 60.88 225.85 60.88 225.85 64.98 229.84 64.98 230.01 66.05 225.85 66.05 225.85 70.7 231.07 70.7 231.07 71.78 224.65 71.78"/><path class="cls-1" d="M237.76,71.91a6.7,6.7,0,0,1-3.17-.74l.17-1.22a5.82,5.82,0,0,0,3.05.91,2.2,2.2,0,0,0,2.47-2.16c0-1.17-.59-1.76-2.41-2.56-2.29-1-3.12-1.77-3.12-3.47s1.45-3,3.43-3a5.12,5.12,0,0,1,2.63.63l-.17,1.19a4.47,4.47,0,0,0-2.51-.76,1.93,1.93,0,0,0-2.19,1.87c0,1.09.57,1.62,2.41,2.43,2.22,1,3.12,1.84,3.12,3.59,0,2-1.61,3.29-3.71,3.29"/><path class="cls-1" d="M248.22,71.91a6.7,6.7,0,0,1-3.17-.74l.17-1.22a5.82,5.82,0,0,0,3.05.91,2.19,2.19,0,0,0,2.46-2.16c0-1.17-.58-1.76-2.41-2.56-2.28-1-3.12-1.77-3.12-3.47s1.46-3,3.44-3a5.15,5.15,0,0,1,2.63.63l-.17,1.19a4.47,4.47,0,0,0-2.51-.76,1.93,1.93,0,0,0-2.19,1.87c0,1.09.57,1.62,2.41,2.43,2.22,1,3.12,1.84,3.12,3.59,0,2-1.61,3.29-3.71,3.29"/></svg>